<svg width="800" height="800" viewBox="0 0 800 800" fill="none" xmlns="http://www.w3.org/2000/svg">
	<style>
		path { fill: #000; }
		@media (prefers-color-scheme: dark) {
			path { fill: #fff; }
		}
	</style>
	<path d="M793.224 117.203L591.985 0L399.612 110.988L207.238 0L6 117.203L6 350.721L198.373 461.709L198.373 683.685L399.612 800L600.85 683.685L600.85 461.709L793.224 350.721V117.203ZM764.855 122.531L591.985 221.976L418.229 122.531L591.985 22.1976L764.855 122.531ZM399.612 555.827L226.742 455.494L399.612 355.161L572.482 455.494L399.612 555.827ZM409.363 138.513L582.233 238.846V438.624L409.363 339.179L409.363 138.513ZM389.86 339.179L216.99 439.512L216.99 238.846L389.86 138.513L389.86 339.179ZM380.995 122.531L207.238 221.976L34.3684 122.531L207.238 22.1976L380.995 122.531ZM25.5033 138.513L198.373 238.846L198.373 438.624L25.5033 339.179L25.5033 138.513ZM216.99 472.364L389.86 572.697L389.86 772.475L216.99 672.142L216.99 472.364ZM409.363 772.475L409.363 572.697L582.233 472.364V672.142L409.363 772.475ZM600.85 439.512V238.846L773.72 138.513V338.291L600.85 439.512Z"/>
</svg>
